<svg xmlns="http://www.w3.org/2000/svg" viewBox="13 18 48 48">
  <style>
    path { fill: #6268db; }
    @media (prefers-color-scheme: dark) {
      path { fill: #ffffff; }
    }
  </style>
  <path transform="matrix(1,0,0,-1,41.7099,35.5766)" d="M0 0C-2.539-2.539-6.656-2.539-9.195 0-11.735 2.539-11.735 6.656-9.195 9.195-6.656 11.735-2.539 11.735 0 9.195 2.539 6.656 2.539 2.539 0 0M1.367 10.629C-1.904 13.9-7.207 13.9-10.478 10.629L-21.934-.826C-25.205-4.097-25.205-9.4-21.934-12.671-18.663-15.942-13.359-15.942-10.088-12.671L1.367-1.216C4.638 2.055 4.638 7.358 1.367 10.629"/>
  <path transform="matrix(1,0,0,-1,42.1838,58.6592)" d="M0 0C-2.539-2.539-6.656-2.539-9.195 0-11.735 2.539-11.735 6.656-9.195 9.195-6.656 11.735-2.539 11.735 0 9.195 2.539 6.656 2.539 2.539 0 0M12.738 21.867V21.867C9.467 25.138 4.164 25.138 .893 21.867L-10.562 10.411C-13.833 7.14-13.833 1.837-10.562-1.434-7.291-4.705-1.988-4.705 1.283-1.434L12.738 10.021C16.009 13.292 16.009 18.596 12.738 21.867"/>
</svg>
